<svg aria-hidden="true" style="position: absolute; width: 0; height: 0; overflow: hidden;" version="1.1" xmlns="http://www.w3.org/2000/svg" xmlns:xlink="http://www.w3.org/1999/xlink">
<defs>
<symbol id="arrow-right-icon" viewBox="0 0 32 32">
<path d="M29.143 17.143c0 0.607-0.232 1.196-0.661 1.625l-11.625 11.625c-0.429 0.411-1.018 0.661-1.625 0.661s-1.179-0.25-1.607-0.661l-1.339-1.339c-0.429-0.429-0.679-1.018-0.679-1.625s0.25-1.196 0.679-1.625l5.232-5.232h-12.571c-1.286 0-2.089-1.071-2.089-2.286v-2.286c0-1.214 0.804-2.286 2.089-2.286h12.571l-5.232-5.25c-0.429-0.411-0.679-1-0.679-1.607s0.25-1.196 0.679-1.607l1.339-1.339c0.429-0.429 1-0.679 1.607-0.679s1.196 0.25 1.625 0.679l11.625 11.625c0.429 0.411 0.661 1 0.661 1.607z"></path>
</symbol>
<symbol id="calendar-icon" viewBox="0 0 32 32">
<path d="M3.429 29.714h5.143v-5.143h-5.143v5.143zM9.714 29.714h5.714v-5.143h-5.714v5.143zM3.429 23.429h5.143v-5.714h-5.143v5.714zM9.714 23.429h5.714v-5.714h-5.714v5.714zM3.429 16.571h5.143v-5.143h-5.143v5.143zM16.571 29.714h5.714v-5.143h-5.714v5.143zM9.714 16.571h5.714v-5.143h-5.714v5.143zM23.429 29.714h5.143v-5.143h-5.143v5.143zM16.571 23.429h5.714v-5.714h-5.714v5.714zM10.286 8v-5.143c0-0.304-0.268-0.571-0.571-0.571h-1.143c-0.304 0-0.571 0.268-0.571 0.571v5.143c0 0.304 0.268 0.571 0.571 0.571h1.143c0.304 0 0.571-0.268 0.571-0.571zM23.429 23.429h5.143v-5.714h-5.143v5.714zM16.571 16.571h5.714v-5.143h-5.714v5.143zM23.429 16.571h5.143v-5.143h-5.143v5.143zM24 8v-5.143c0-0.304-0.268-0.571-0.571-0.571h-1.143c-0.304 0-0.571 0.268-0.571 0.571v5.143c0 0.304 0.268 0.571 0.571 0.571h1.143c0.304 0 0.571-0.268 0.571-0.571zM30.857 6.857v22.857c0 1.25-1.036 2.286-2.286 2.286h-25.143c-1.25 0-2.286-1.036-2.286-2.286v-22.857c0-1.25 1.036-2.286 2.286-2.286h2.286v-1.714c0-1.571 1.286-2.857 2.857-2.857h1.143c1.571 0 2.857 1.286 2.857 2.857v1.714h6.857v-1.714c0-1.571 1.286-2.857 2.857-2.857h1.143c1.571 0 2.857 1.286 2.857 2.857v1.714h2.286c1.25 0 2.286 1.036 2.286 2.286z"></path>
</symbol>
<symbol id="check-icon" viewBox="0 0 32 32">
<path d="M29.839 10.107c0 0.446-0.179 0.893-0.5 1.214l-15.357 15.357c-0.321 0.321-0.768 0.5-1.214 0.5s-0.893-0.179-1.214-0.5l-8.893-8.893c-0.321-0.321-0.5-0.768-0.5-1.214s0.179-0.893 0.5-1.214l2.429-2.429c0.321-0.321 0.768-0.5 1.214-0.5s0.893 0.179 1.214 0.5l5.25 5.268 11.714-11.732c0.321-0.321 0.768-0.5 1.214-0.5s0.893 0.179 1.214 0.5l2.429 2.429c0.321 0.321 0.5 0.768 0.5 1.214z"></path>
</symbol>
<symbol id="comment-icon" viewBox="0 0 32 32">
<path d="M16 2c8.837 0 16 5.82 16 13s-7.163 13-16 13c-0.849 0-1.682-0.054-2.495-0.158-3.437 3.437-7.539 4.053-11.505 4.144v-0.841c2.142-1.049 4-2.961 4-5.145 0-0.305-0.024-0.604-0.068-0.897-3.619-2.383-5.932-6.024-5.932-10.103 0-7.18 7.163-13 16-13z"></path>
</symbol>
<symbol id="envelope-icon" viewBox="0 0 448 448">
<path d="M448 177.5v198.5c0 22-18 40-40 40h-368c-22 0-40-18-40-40v-198.5c7.5 8.25 16 15.5 25.25 21.75 41.5 28.25 83.5 56.5 124.25 86.25 21 15.5 47 34.5 74.25 34.5h0.5c27.25 0 53.25-19 74.25-34.5 40.75-29.5 82.75-58 124.5-86.25 9-6.25 17.5-13.5 25-21.75zM448 104c0 28-20.75 53.25-42.75 68.5-39 27-78.25 54-117 81.25-16.25 11.25-43.75 34.25-64 34.25h-0.5c-20.25 0-47.75-23-64-34.25-38.75-27.25-78-54.25-116.75-81.25-17.75-12-43-40.25-43-63 0-24.5 13.25-45.5 40-45.5h368c21.75 0 40 18 40 40z"></path>
</symbol>
<symbol id="envelope-empty-icon" viewBox="0 0 448 448">
<path d="M416 376v-192c-5.25 6-11 11.5-17.25 16.5-35.75 27.5-71.75 55.5-106.5 84.5-18.75 15.75-42 35-68 35h-0.5c-26 0-49.25-19.25-68-35-34.75-29-70.75-57-106.5-84.5-6.25-5-12-10.5-17.25-16.5v192c0 4.25 3.75 8 8 8h368c4.25 0 8-3.75 8-8zM416 113.25c0-6.25 1.5-17.25-8-17.25h-368c-4.25 0-8 3.75-8 8 0 28.5 14.25 53.25 36.75 71 33.5 26.25 67 52.75 100.25 79.25 13.25 10.75 37.25 33.75 54.75 33.75h0.5c17.5 0 41.5-23 54.75-33.75 33.25-26.5 66.75-53 100.25-79.25 16.25-12.75 36.75-40.5 36.75-61.75zM448 104v272c0 22-18 40-40 40h-368c-22 0-40-18-40-40v-272c0-22 18-40 40-40h368c22 0 40 18 40 40z"></path>
</symbol>
<symbol id="heart-icon" viewBox="0 0 32 32">
<path d="M16 29.714c-0.286 0-0.571-0.107-0.786-0.321l-11.143-10.75c-0.143-0.125-4.071-3.714-4.071-8 0-5.232 3.196-8.357 8.536-8.357 3.125 0 6.054 2.464 7.464 3.857 1.411-1.393 4.339-3.857 7.464-3.857 5.339 0 8.536 3.125 8.536 8.357 0 4.286-3.929 7.875-4.089 8.036l-11.125 10.714c-0.214 0.214-0.5 0.321-0.786 0.321z"></path>
</symbol>
<symbol id="home-icon" viewBox="0 0 32 32">
<path d="M26.286 17.714v8.571c0 0.625-0.518 1.143-1.143 1.143h-6.857v-6.857h-4.571v6.857h-6.857c-0.625 0-1.143-0.518-1.143-1.143v-8.571c0-0.036 0.018-0.071 0.018-0.107l10.268-8.464 10.268 8.464c0.018 0.036 0.018 0.071 0.018 0.107zM30.268 16.482l-1.107 1.321c-0.089 0.107-0.232 0.179-0.375 0.196h-0.054c-0.143 0-0.268-0.036-0.375-0.125l-12.357-10.304-12.357 10.304c-0.125 0.089-0.268 0.143-0.429 0.125-0.143-0.018-0.286-0.089-0.375-0.196l-1.107-1.321c-0.196-0.232-0.161-0.607 0.071-0.804l12.839-10.696c0.75-0.625 1.964-0.625 2.714 0l4.357 3.643v-3.482c0-0.321 0.25-0.571 0.571-0.571h3.429c0.321 0 0.571 0.25 0.571 0.571v7.286l3.911 3.25c0.232 0.196 0.268 0.571 0.071 0.804z"></path>
</symbol>
<symbol id="info-icon" viewBox="0 0 32 32">
<path d="M20.571 24.571v-2.857c0-0.321-0.25-0.571-0.571-0.571h-1.714v-9.143c0-0.321-0.25-0.571-0.571-0.571h-5.714c-0.321 0-0.571 0.25-0.571 0.571v2.857c0 0.321 0.25 0.571 0.571 0.571h1.714v5.714h-1.714c-0.321 0-0.571 0.25-0.571 0.571v2.857c0 0.321 0.25 0.571 0.571 0.571h8c0.321 0 0.571-0.25 0.571-0.571zM18.286 8.571v-2.857c0-0.321-0.25-0.571-0.571-0.571h-3.429c-0.321 0-0.571 0.25-0.571 0.571v2.857c0 0.321 0.25 0.571 0.571 0.571h3.429c0.321 0 0.571-0.25 0.571-0.571zM29.714 16c0 7.571-6.143 13.714-13.714 13.714s-13.714-6.143-13.714-13.714 6.143-13.714 13.714-13.714 13.714 6.143 13.714 13.714z"></path>
</symbol>
<symbol id="link-icon" viewBox="0 0 32 32">
<path d="M27.143 21.714c0-0.464-0.179-0.893-0.5-1.214l-3.714-3.714c-0.321-0.321-0.768-0.5-1.214-0.5-0.518 0-0.929 0.196-1.286 0.571 0.589 0.589 1.286 1.089 1.286 2 0 0.946-0.768 1.714-1.714 1.714-0.911 0-1.411-0.696-2-1.286-0.375 0.357-0.589 0.768-0.589 1.304 0 0.446 0.179 0.893 0.5 1.214l3.679 3.696c0.321 0.321 0.768 0.482 1.214 0.482s0.893-0.161 1.214-0.464l2.625-2.607c0.321-0.321 0.5-0.75 0.5-1.196zM14.589 9.125c0-0.446-0.179-0.893-0.5-1.214l-3.679-3.696c-0.321-0.321-0.768-0.5-1.214-0.5s-0.893 0.179-1.214 0.482l-2.625 2.607c-0.321 0.321-0.5 0.75-0.5 1.196 0 0.464 0.179 0.893 0.5 1.214l3.714 3.714c0.321 0.321 0.768 0.482 1.214 0.482 0.518 0 0.929-0.179 1.286-0.554-0.589-0.589-1.286-1.089-1.286-2 0-0.946 0.768-1.714 1.714-1.714 0.911 0 1.411 0.696 2 1.286 0.375-0.357 0.589-0.768 0.589-1.304zM30.571 21.714c0 1.357-0.554 2.679-1.518 3.625l-2.625 2.607c-0.964 0.964-2.268 1.482-3.625 1.482-1.375 0-2.679-0.536-3.643-1.518l-3.679-3.696c-0.964-0.964-1.482-2.268-1.482-3.625 0-1.411 0.571-2.75 1.571-3.732l-1.571-1.571c-0.982 1-2.304 1.571-3.714 1.571-1.357 0-2.679-0.536-3.643-1.5l-3.714-3.714c-0.982-0.982-1.5-2.268-1.5-3.643 0-1.357 0.554-2.679 1.518-3.625l2.625-2.607c0.964-0.964 2.268-1.482 3.625-1.482 1.375 0 2.679 0.536 3.643 1.518l3.679 3.696c0.964 0.964 1.482 2.268 1.482 3.625 0 1.411-0.571 2.75-1.571 3.732l1.571 1.571c0.982-1 2.304-1.571 3.714-1.571 1.357 0 2.679 0.536 3.643 1.5l3.714 3.714c0.982 0.982 1.5 2.268 1.5 3.643z"></path>
</symbol>
<symbol id="map-icon" viewBox="0 0 20 32">
<path d="M17.070 2.93c-3.906-3.906-10.234-3.906-14.141 0-3.906 3.904-3.906 10.238 0 14.14 0.001 0 7.071 6.93 7.071 14.93 0-8 7.070-14.93 7.070-14.93 3.907-3.902 3.907-10.236 0-14.14zM10 14c-2.211 0-4-1.789-4-4s1.789-4 4-4 4 1.789 4 4-1.789 4-4 4z"></path>
</symbol>
<symbol id="phone-icon" viewBox="0 0 32 32">
<path d="M22 20c-2 2-2 4-4 4s-4-2-6-4-4-4-4-6 2-2 4-4-4-8-6-8-6 6-6 6c0 4 4.109 12.109 8 16s12 8 16 8c0 0 6-4 6-6s-6-8-8-6z"></path>
</symbol>
<symbol id="user-icon" viewBox="0 0 32 32">
<path d="M27.429 24.982c0 2.607-1.714 4.732-3.804 4.732h-15.25c-2.089 0-3.804-2.125-3.804-4.732 0-4.696 1.161-10.125 5.839-10.125 1.446 1.411 3.411 2.286 5.589 2.286s4.143-0.875 5.589-2.286c4.679 0 5.839 5.429 5.839 10.125zM22.857 9.143c0 3.786-3.071 6.857-6.857 6.857s-6.857-3.071-6.857-6.857 3.071-6.857 6.857-6.857 6.857 3.071 6.857 6.857z"></path>
</symbol>
<symbol id="zoom-icon" viewBox="0 0 32 32">
<path d="M28.933 27.067l-4.933-4.933c1.6-2 2.667-4.667 2.667-7.467 0-6.667-5.333-12-12-12s-12 5.333-12 12c0 6.667 5.333 12 12 12 2.8 0 5.467-0.933 7.467-2.667l4.933 4.933c0.267 0.267 0.667 0.4 0.933 0.4s0.667-0.133 0.933-0.4c0.533-0.533 0.533-1.333 0-1.867zM5.333 14.667c0-5.2 4.133-9.333 9.333-9.333s9.333 4.133 9.333 9.333c0 2.533-1.067 4.933-2.667 6.533 0 0 0 0 0 0s0 0 0 0c-1.733 1.733-4 2.667-6.533 2.667-5.333 0.133-9.467-4-9.467-9.2z"></path>
<path d="M18.667 13.333h-2.667v-2.667c0-0.8-0.533-1.333-1.333-1.333s-1.333 0.533-1.333 1.333v2.667h-2.667c-0.8 0-1.333 0.533-1.333 1.333s0.533 1.333 1.333 1.333h2.667v2.667c0 0.8 0.533 1.333 1.333 1.333s1.333-0.533 1.333-1.333v-2.667h2.667c0.8 0 1.333-0.533 1.333-1.333s-0.533-1.333-1.333-1.333z"></path>
</symbol>
</defs>
</svg>